<?xml version="1.0" encoding="UTF-8"?><svg id="Layer_1" xmlns="http://www.w3.org/2000/svg" viewBox="0 0 50 50"><defs><style>.cls-1{fill:none;stroke:#414141;stroke-linecap:round;stroke-linejoin:round;stroke-width:1.47px;}.cls-2{fill:#f47522;}.cls-3{fill:#fdc917;}</style></defs><path class="cls-2" d="m28.96,46.45c-7.16.93-13.61-1.4-17.33-3.4-3.73-2-8.85-3.21-8.42-6.01.33-2.21,4.64-3.14,8.72-6.09,4.76-3.45,8.73-9.49,16.14-10.13s11,3.89,12.53,6.8,1.94,9.52-1.53,13.52-10.1,5.31-10.1,5.31Z"/><path class="cls-3" d="m17.44,3.68c3.98-1.17,7.83-.38,10.12.44s5.29,1.08,5.29,2.73c0,1.31-2.36,2.22-4.42,4.28-2.4,2.41-4.13,6.24-8.28,7.26s-6.57-1.29-7.69-2.83-1.92-5.33-.29-7.94,5.27-3.95,5.27-3.95Z"/><path class="cls-1" d="m9.43,18.18s6.71-6.34,17.26-10.6"/><path class="cls-1" d="m16.83,6.77s-1.71,3.89-.64,6.1"/><path class="cls-1" d="m20.83,15.57s-2.76.77-6.44-1.29"/><path class="cls-1" d="m25.41,11.73s-3.25-.21-4.58-1.12"/><path class="cls-1" d="m45.66,23.99s-8.74,8.15-33.09,13.53"/><path class="cls-1" d="m16.83,30.54s4.96.65,8.15,3.63"/><path class="cls-1" d="m16.34,41.25s3.07-2.65,3.41-5.51"/><path class="cls-1" d="m30.31,41.04s3.18-5.53,3.14-10.04"/><path class="cls-1" d="m25.89,25.64s7.81.39,10.7,3.93"/></svg>