<?xml version="1.0" encoding="UTF-8"?><svg id="Layer_1" xmlns="http://www.w3.org/2000/svg" viewBox="0 0 45 45"><defs><style>.cls-1{stroke-linejoin:round;}.cls-1,.cls-2{fill:#383838;}.cls-1,.cls-3{stroke:#383838;stroke-linecap:round;}.cls-3{fill:none;stroke-miterlimit:10;}</style></defs><path class="cls-2" d="m22.4,7.7c-2.76,0-5.53.65-6.98,1.25-2.11.87-8.3-4.07-12.7,1.51-3.47,4.41,1.23,10.81,3.2,11.32-.13.85-.2,1.71-.2,2.6,0,9.21,7.47,16.68,16.68,16.68s16.68-7.47,16.68-16.68c0-.58.11-1.59.05-2.15,5.68-4.48,4.45-9.31,2.95-11.77-3.1-5.08-10.87-.9-13.17-1.76-1.64-.62-4.15-1-6.52-1Zm0,30.6c-7.69,0-13.92-6.23-13.92-13.92s6.23-13.92,13.92-13.92,13.92,6.23,13.92,13.92-6.23,13.92-13.92,13.92Z"/><ellipse class="cls-2" cx="17.2" cy="22.89" rx="4.52" ry="3.77" transform="translate(-10.6 29.72) rotate(-66.89)"/><ellipse class="cls-2" cx="27.73" cy="22.89" rx="3.77" ry="4.52" transform="translate(-5.35 8.8) rotate(-16.47)"/><path class="cls-1" d="m19.14,28.95l3.08,2.41,3.13-2.41s-.72-.8-3.1-.83-3.1.83-3.1.83Z"/><path class="cls-3" d="m22.26,30.97v2.26c-.6.84-2.11,1.84-3.77.57"/><path class="cls-3" d="m22.26,30.97v2.26s1.87,2.02,3.75.57"/></svg>