<?xml version="1.0" encoding="UTF-8"?><svg id="Layer_1" xmlns="http://www.w3.org/2000/svg" viewBox="0 0 50 50"><defs><style>.cls-1{stroke-width:3px;}.cls-1,.cls-2{fill:none;stroke:#414141;stroke-linecap:round;stroke-miterlimit:10;}.cls-2{stroke-width:2px;}</style></defs><path class="cls-1" d="m25,44.04V6.03"/><polyline class="cls-2" points="19.45 6.95 24.98 12.49 30.56 6.91"/><polyline class="cls-2" points="30.56 43.57 25.03 38.03 19.45 43.61"/><path class="cls-1" d="m6,25.04h38.01"/><polyline class="cls-2" points="43.09 19.48 37.55 25.01 43.13 30.59"/><polyline class="cls-2" points="6.47 30.59 12.01 25.06 6.43 19.48"/><path class="cls-1" d="m11.57,38.47l26.88-26.88"/><polyline class="cls-2" points="32.61 9.57 32.61 17.4 40.5 17.4"/><polyline class="cls-2" points="17.08 40.82 17.08 33 9.19 33"/><path class="cls-1" d="m11.57,11.92l26.88,26.88"/><polyline class="cls-2" points="40.47 32.96 32.65 32.96 32.65 40.86"/><polyline class="cls-2" points="9.22 17.43 17.04 17.43 17.04 9.54"/></svg>