<?xml version="1.0" encoding="UTF-8"?><svg id="Layer_1" xmlns="http://www.w3.org/2000/svg" viewBox="0 0 50 50"><defs><style>.cls-1{fill:#fdca18;}.cls-2{fill:#fff;}.cls-3{fill:#c1c1c0;}.cls-4{fill:#c1c1c1;}.cls-5{fill:#c4902c;}.cls-6{fill:#414040;}.cls-7{fill:#313131;}</style></defs><g id="UnqeCt"><g><path class="cls-2" d="m9.25,28.78c.08-.04.17-.09.25-.13,3.03,0,6.05,0,9.08,0,0,.06,0,.12.03.17-1.05,2.16-2.09,4.31-3.18,6.55h4.25c-1.68,3.28-3.31,6.45-4.94,9.63.08.05.16.11.24.16,4.5-3.93,9-7.85,13.66-11.92h-4.35c.88-1.61,1.65-3.02,2.42-4.43.13-.05.26-.1.39-.16,4.69,0,9.39-.09,14.08.01,2.5.06,5.09-2.57,4.36-5.5-.4-1.59-2.12-3.34-3.7-3.26-.73.03-.77-.38-.78-.94-.02-1.67-1.18-3.27-2.77-3.72-.91-.26-1.88-.33-2.88-.49-.3-4.54-5.24-7.3-9.21-5.15-.64-.87-1.18-1.82-1.93-2.56-3.48-3.4-9.91-3.25-12.96.27-2.26,2.6-2.64,5.46-1.99,8.61.25,1.2.36,1.16-.89,1.25-.32.02-.64.21-.95.36-2.46,1.14-3.65,3.06-3.49,5.79.16,2.69,2.3,5.03,5.05,5.28.07.06.15.12.22.19Z"/><path class="cls-6" d="m18.58,28.65c-3.03,0-6.05,0-9.08,0-.06-.04-.12-.06-.19-.05-.09,0-.19,0-.28,0-2.75-.25-4.89-2.58-5.05-5.28-.16-2.73,1.03-4.64,3.49-5.79.31-.14.63-.33.95-.36,1.25-.09,1.14-.05.89-1.25-.65-3.15-.27-6.01,1.99-8.61,3.06-3.52,9.48-3.67,12.96-.27.75.73,1.29,1.69,1.93,2.56,3.97-2.15,8.92.6,9.21,5.15.99.16,1.96.23,2.88.49,1.59.45,2.75,2.05,2.77,3.72,0,.56.05.97.78.94,1.58-.08,3.3,1.67,3.7,3.26.73,2.93-1.87,5.56-4.36,5.5-4.69-.11-9.39-.02-14.08-.01-.14,0-.27-.01-.41-.02-2.62,0-5.24,0-7.86,0-.08,0-.15.02-.23.02Z"/><path class="cls-1" d="m26.69,28.81c-.77,1.41-1.54,2.82-2.42,4.43h4.35c-4.66,4.07-9.16,7.99-13.66,11.92-.08-.05-.16-.11-.24-.16,1.63-3.18,3.26-6.35,4.94-9.63h-4.25c1.09-2.24,2.13-4.4,3.18-6.55.06-.01.13-.03.19-.04h7.81s.09.03.09.03Z"/><path class="cls-3" d="m26.67,28.63c.14,0,.27.01.41.02-.13.05-.26.1-.39.16,0,0-.09-.02-.09-.02.04-.05.06-.1.07-.16Z"/><path class="cls-7" d="m9.03,28.6c.09,0,.19,0,.28,0-.02.06-.04.12-.06.18-.07-.06-.15-.12-.22-.19Z"/><path class="cls-4" d="m9.25,28.78c.02-.06.04-.12.06-.18.07,0,.13,0,.19.05-.08.04-.17.09-.25.13Z"/><path class="cls-4" d="m18.8,28.78c-.06.01-.13.03-.19.04-.03-.05-.04-.11-.03-.17.08,0,.15-.02.23-.02,0,.05,0,.1-.01.15Z"/><path class="cls-5" d="m18.8,28.78c0-.05,0-.1.01-.15,2.62,0,5.24,0,7.86,0,0,.06-.03.12-.07.16h-7.81Z"/></g></g></svg>