<?xml version="1.0" encoding="UTF-8"?><svg id="Layer_1" xmlns="http://www.w3.org/2000/svg" viewBox="0 0 45 45"><defs><style>.cls-1{fill:#414040;}</style></defs><path class="cls-1" d="m11.78,19.1c.53-1.5,1.39-2.91,2.6-4.12,4.3-4.3,11.28-4.3,15.58,0l1.18,1.18h-3.46c-1.22,0-2.2.98-2.2,2.2s.98,2.2,2.2,2.2h8.81c1.22,0,2.2-.98,2.2-2.2v-8.81c0-1.22-.98-2.2-2.2-2.2s-2.2.98-2.2,2.2v3.53l-1.2-1.21c-6.02-6.02-15.79-6.02-21.81,0-1.68,1.68-2.89,3.66-3.64,5.77-.41,1.15.2,2.4,1.34,2.81,1.14.41,2.4-.2,2.81-1.34h0Zm-4.55,5.96c-.34.1-.67.29-.94.56-.28.28-.46.61-.56.96-.02.08-.04.17-.06.26-.02.12-.03.23-.03.35v8.79c0,1.22.98,2.2,2.2,2.2s2.2-.98,2.2-2.2v-3.52l1.21,1.2h0c6.02,6.02,15.79,6.02,21.81,0,1.68-1.68,2.9-3.66,3.64-5.76.41-1.15-.2-2.4-1.34-2.81s-2.4.2-2.81,1.34c-.53,1.5-1.39,2.91-2.6,4.12-4.3,4.3-11.28,4.3-15.58,0h0s-1.18-1.18-1.18-1.18h3.47c1.22,0,2.2-.98,2.2-2.2s-.98-2.2-2.2-2.2H7.87c-.11,0-.22,0-.33.02s-.21.03-.32.07Z"/></svg>