<?xml version="1.0" encoding="UTF-8"?><svg id="Layer_1" xmlns="http://www.w3.org/2000/svg" viewBox="0 0 536 511.92"><defs><style>.cls-1{fill:#fff;}</style></defs><path class="cls-1" d="m219.7,42.7l-37.7,14.1c-3,1.1-5,4-5,7.2s2,6.1,5,7.2l37.7,14.1,14.1,37.7c1.1,3,4,5,7.2,5s6.1-2,7.2-5l14.1-37.7,37.7-14.1c3-1.1,5-4,5-7.2s-2-6.1-5-7.2l-37.7-14.1-14.1-37.7c-1.1-3-4-5-7.2-5s-6.1,2-7.2,5l-14.1,37.7Z"/><path class="cls-1" d="m521.9,48.6l-34.6-34.5c-18.7-18.7-49.1-18.7-67.9,0L38.1,395.4c-18.7,18.7-18.7,49.1,0,67.9l34.6,34.6c18.7,18.7,49.1,18.7,67.9,0L521.9,116.5c18.7-18.7,18.7-49.1,0-67.9Zm-138.3,151l-47.3-47.3,105-105,47.3,47.3-105,105Z"/><path class="cls-1" d="m7.5,133.2c-4.5,1.7-7.5,6-7.5,10.8s3,9.1,7.5,10.8l56.5,21.2,21.2,56.5c1.7,4.5,6,7.5,10.8,7.5s9.1-3,10.8-7.5l21.2-56.5,56.5-21.2c4.5-1.7,7.5-6,7.5-10.8s-3-9.1-7.5-10.8l-56.5-21.2-21.2-56.5c-1.7-4.5-6-7.5-10.8-7.5s-9.1,3-10.8,7.5l-21.2,56.5-56.5,21.2Z"/><path class="cls-1" d="m351.5,373.2c-4.5,1.7-7.5,6-7.5,10.8s3,9.1,7.5,10.8l56.5,21.2,21.2,56.5c1.7,4.5,6,7.5,10.8,7.5s9.1-3,10.8-7.5l21.2-56.5,56.5-21.2c4.5-1.7,7.5-6,7.5-10.8s-3-9.1-7.5-10.8l-56.5-21.2-21.2-56.5c-1.7-4.5-6-7.5-10.8-7.5s-9.1,3-10.8,7.5l-21.2,56.5-56.5,21.2Z"/></svg>